<svg xmlns="http://www.w3.org/2000/svg" viewBox="0 0 64 64">
  <defs>
    <linearGradient id="parchment" x1="0%" y1="0%" x2="0%" y2="100%">
      <stop offset="0%" style="stop-color:#f5e6c8"/>
      <stop offset="100%" style="stop-color:#e8d5a8"/>
    </linearGradient>
  </defs>
  <!-- Scroll body -->
  <path d="M12 8 L12 52 Q12 56 16 56 L48 56 Q52 56 52 52 L52 12 L44 4 L16 4 Q12 4 12 8 Z" fill="url(#parchment)" stroke="#8b7355" stroke-width="1.5"/>
  <!-- Page fold -->
  <path d="M44 4 L44 12 L52 12 Z" fill="#e0cfa0" stroke="#8b7355" stroke-width="1.5" stroke-linejoin="round"/>
  <!-- Scroll curl top -->
  <ellipse cx="12" cy="6" rx="4" ry="3" fill="#e8d5a8" stroke="#8b7355" stroke-width="1.5"/>
  <!-- Scroll curl bottom -->
  <ellipse cx="12" cy="54" rx="4" ry="3" fill="#e8d5a8" stroke="#8b7355" stroke-width="1.5"/>
  <!-- Text lines -->
  <line x1="20" y1="18" x2="44" y2="18" stroke="#8b7355" stroke-width="2" stroke-linecap="round"/>
  <line x1="20" y1="26" x2="40" y2="26" stroke="#a89070" stroke-width="1.5" stroke-linecap="round"/>
  <line x1="20" y1="32" x2="42" y2="32" stroke="#a89070" stroke-width="1.5" stroke-linecap="round"/>
  <line x1="20" y1="38" x2="38" y2="38" stroke="#a89070" stroke-width="1.5" stroke-linecap="round"/>
  <line x1="20" y1="44" x2="41" y2="44" stroke="#a89070" stroke-width="1.5" stroke-linecap="round"/>
</svg>
